<?xml version="1.0" encoding="UTF-8" standalone="no"?>
<!-- Created with Inkscape (http://www.inkscape.org/) -->

<svg
   version="1.1"
   id="svg148"
   width="474.40134"
   height="175.96399"
   viewBox="0 0 474.40134 175.96399"
   sodipodi:docname="Logo_DC.svg"
   inkscape:version="1.2.2 (732a01da63, 2022-12-09, custom)"
   xmlns:inkscape="http://www.inkscape.org/namespaces/inkscape"
   xmlns:sodipodi="http://sodipodi.sourceforge.net/DTD/sodipodi-0.dtd"
   xmlns="http://www.w3.org/2000/svg"
   xmlns:svg="http://www.w3.org/2000/svg">
  <defs
     id="defs152" />
  <sodipodi:namedview
     id="namedview150"
     pagecolor="#ffffff"
     bordercolor="#666666"
     borderopacity="1.0"
     inkscape:showpageshadow="2"
     inkscape:pageopacity="0.0"
     inkscape:pagecheckerboard="0"
     inkscape:deskcolor="#d1d1d1"
     showgrid="false"
     inkscape:zoom="2.8588259"
     inkscape:cx="253.25082"
     inkscape:cy="138.6933"
     inkscape:window-width="2560"
     inkscape:window-height="1376"
     inkscape:window-x="1920"
     inkscape:window-y="27"
     inkscape:window-maximized="1"
     inkscape:current-layer="g156">
    <inkscape:page
       x="0"
       y="0"
       id="page154"
       width="474.40134"
       height="175.96399" />
  </sodipodi:namedview>
  <g
     id="g156"
     inkscape:groupmode="layer"
     inkscape:label="Page 1"
     transform="matrix(1.3333333,0,0,-1.3333333,0,175.96399)">
    <g
       id="g158">
      <path
         d="m 40.594,80.633 c 1.855,0 3.707,-0.933 4.73,-2.691 0.457,-0.832 0.645,-1.668 0.738,-2.594 V 75.16 C 45.969,73.403 45.039,71.641 43.371,70.715 42.539,70.157 41.52,69.973 40.598,69.973 Z m 0,9.637 v 10.66 c 1.855,0 3.613,-0.93 4.636,-2.691 1.477,-2.504 0.645,-5.746 -1.949,-7.227 C 42.449,90.453 41.52,90.27 40.594,90.27 m 0,20.203 v 10.66 c 1.855,0 3.613,-1.023 4.636,-2.687 1.477,-2.504 0.551,-5.84 -1.949,-7.325 -0.832,-0.464 -1.761,-0.648 -2.687,-0.648 M 38.926,80.352 c 0.558,0.183 1.109,0.281 1.668,0.281 v -10.66 c -1.762,0 -3.52,0.926 -4.539,2.594 -0.278,0.554 -0.465,1.207 -0.653,1.761 -0.644,1.946 -2.039,3.707 -3.613,4.821 v 2.871 c 0.277,-0.188 0.461,-0.371 0.742,-0.555 1.852,-1.207 4.078,-1.765 6.395,-1.113 m 1.668,40.781 v -10.66 c -1.856,0 -3.614,0.93 -4.637,2.598 -1.48,2.589 -0.555,5.832 1.949,7.32 0.832,0.465 1.758,0.742 2.688,0.742 m 0,-20.203 V 90.27 c -1.856,0 -3.614,0.926 -4.539,2.687 -0.371,0.555 -0.559,1.114 -0.653,1.664 -0.742,1.95 -2.129,3.618 -3.613,4.821 v 2.875 c 0.184,-0.184 0.461,-0.371 0.649,-0.461 1.945,-1.301 4.078,-1.762 6.394,-1.207 0.559,0.183 1.203,0.281 1.762,0.281 M 31.789,79.149 c -0.184,0.183 -0.375,0.277 -0.555,0.371 -1.578,1.113 -3.8,1.48 -5.839,1.113 -0.653,-0.281 -1.297,-0.465 -1.946,-0.558 h -0.094 c -1.949,-0.094 -3.894,0.832 -5.003,2.687 -0.372,0.648 -0.559,1.301 -0.653,1.945 -0.644,1.762 -1.941,3.243 -3.242,4.36 v 2.871 c 0.094,-0.094 0.281,-0.188 0.465,-0.281 1.855,-1.204 3.984,-1.758 6.301,-1.204 0.465,0.094 0.836,0.188 1.297,0.282 l 0.093,-0.004 c 1.946,0.187 3.989,-0.832 5.098,-2.594 0.094,-0.277 0.277,-0.559 0.371,-0.832 0.094,-0.187 0.094,-0.371 0.188,-0.559 0.738,-2.039 1.941,-3.519 3.519,-4.726 z m 0,23.168 v -2.875 c -0.184,0.187 -0.375,0.281 -0.648,0.375 -1.579,1.113 -3.895,1.48 -5.934,1.113 -2.504,-1.207 -5.469,-0.281 -6.855,2.129 -1.485,2.504 -0.653,5.84 1.945,7.226 2.504,1.485 5.742,0.653 7.23,-1.851 0.09,-0.188 0.18,-0.371 0.278,-0.461 0.183,-0.281 0.277,-0.559 0.371,-0.93 0.832,-2.039 2.035,-3.519 3.613,-4.726 M 14.457,69.231 v 2.871 c 0.188,-0.184 0.465,-0.367 0.652,-0.555 1.848,-1.203 4.079,-1.762 6.391,-1.109 2.41,0.832 5.102,-0.192 6.398,-2.41 1.481,-2.504 0.551,-5.84 -1.949,-7.235 -2.5,-1.48 -5.84,-0.644 -7.32,1.86 -0.277,0.55 -0.465,1.203 -0.649,1.757 -0.648,1.95 -2.039,3.618 -3.523,4.821 m 0,19.836 c -0.277,0.277 -0.555,0.461 -0.836,0.644 -1.668,1.024 -3.887,1.391 -5.93,1.024 C 7.043,90.453 6.395,90.27 5.746,90.27 v 10.562 c 1.668,-0.089 3.336,-1.015 4.266,-2.593 0.09,-0.184 0.09,-0.371 0.183,-0.461 0.184,-0.282 0.371,-0.555 0.461,-0.93 0.836,-2.129 2.043,-3.613 3.801,-4.91 z m 0,-16.965 v -2.871 c -0.277,0.09 -0.461,0.277 -0.648,0.371 -1.668,1.113 -3.895,1.48 -5.93,1.113 C 7.23,70.344 6.488,70.157 5.746,70.157 v 10.66 c 1.762,-0.094 3.52,-1.024 4.449,-2.688 0.09,-0.094 0.184,-0.281 0.184,-0.465 0.187,-0.183 0.371,-0.464 0.465,-0.836 0.832,-2.039 1.945,-3.519 3.613,-4.726 M 5.746,49.77 v 10.656 c 1.856,0 3.613,-1.019 4.633,-2.687 1.484,-2.504 0.559,-5.84 -1.945,-7.325 C 7.602,49.95 6.672,49.77 5.746,49.77 m 0,40.5 C 3.801,90.082 1.855,91.008 0.742,92.864 0.281,93.696 0.094,94.625 0,95.457 v 0.094 c 0.094,1.852 1.02,3.613 2.688,4.637 0.925,0.551 2.039,0.742 3.058,0.644 z m 0,-9.453 v -10.66 c -1.851,-0.09 -3.797,0.925 -4.82,2.687 -1.391,2.504 -0.559,5.746 1.945,7.231 0.93,0.558 1.949,0.742 2.875,0.742 m 0,-20.391 V 49.77 c -1.851,0 -3.613,0.926 -4.633,2.59 -1.39,2.597 -0.558,5.84 1.946,7.324 0.836,0.465 1.761,0.742 2.687,0.742"
         style="fill:#bae3d9;fill-opacity:1;fill-rule:evenodd;stroke:none"
         id="path160" />
      <path
         d="m 97.312,86.282 v -0.184 c -0.093,-1.852 -1.019,-3.523 -2.687,-4.543 -0.832,-0.461 -1.852,-0.742 -2.781,-0.742 v 10.66 c 1.855,0.09 3.707,-0.926 4.73,-2.594 0.461,-0.836 0.645,-1.761 0.738,-2.597 m -5.468,14.925 v 10.653 c 1.855,0 3.613,-1.016 4.636,-2.684 1.481,-2.5 0.649,-5.836 -1.945,-7.324 -0.836,-0.461 -1.762,-0.742 -2.691,-0.645 m 0,20.106 v 10.66 c 1.855,0 3.613,-0.926 4.636,-2.59 1.481,-2.598 0.555,-5.84 -1.945,-7.324 -0.836,-0.465 -1.762,-0.746 -2.691,-0.746 M 72.75,81.278 c 2.414,0.832 5.102,-0.09 6.398,-2.317 1.481,-2.593 0.559,-5.84 -1.945,-7.32 -2.504,-1.484 -5.84,-0.555 -7.324,1.945 -0.277,0.555 -0.461,1.114 -0.649,1.762 -0.742,2.129 -2.406,3.988 -4.168,5.191 -1.671,1.11 -3.894,1.481 -5.933,1.016 -0.649,-0.277 -1.391,-0.461 -2.133,-0.461 v 10.66 c 1.762,-0.094 3.52,-1.023 4.449,-2.691 0.094,-0.18 0.184,-0.278 0.278,-0.461 0.097,-0.277 0.277,-0.555 0.371,-0.926 0.929,-2.32 2.32,-3.894 4.265,-5.191 1.852,-1.207 4.079,-1.762 6.391,-1.207 m 19.094,50.695 v -10.66 c -1.852,0 -3.614,1.023 -4.633,2.691 -1.481,2.504 -0.555,5.84 1.949,7.227 0.832,0.558 1.758,0.742 2.684,0.742 m 0,-20.113 c -0.555,0 -1.11,-0.184 -1.762,-0.367 -2.316,-0.559 -4.449,0 -6.391,1.207 -1.949,1.296 -3.336,2.964 -4.171,5.281 -0.188,0.277 -0.278,0.554 -0.465,0.832 -0.094,0.187 -0.184,0.371 -0.278,0.465 -1.484,2.593 -4.726,3.429 -7.23,1.941 -2.59,-1.476 -3.426,-4.723 -1.942,-7.32 1.387,-2.406 4.352,-3.242 6.856,-2.133 2.039,0.465 4.359,0.094 5.93,-1.016 1.761,-1.113 3.433,-3.058 4.265,-5.191 0.094,-0.555 0.282,-1.207 0.649,-1.762 0.929,-1.668 2.687,-2.594 4.539,-2.594 z m 0,-20.387 c -0.555,0 -1.11,-0.09 -1.668,-0.277 -2.317,-0.555 -4.446,0 -6.391,1.203 -1.949,1.301 -3.34,2.875 -4.265,5.191 0,0.278 -0.094,0.461 -0.188,0.649 -0.09,0.187 -0.277,0.464 -0.371,0.742 -1.109,1.855 -3.149,2.781 -5.094,2.594 h -0.094 c -0.464,0 -0.832,-0.094 -1.3,-0.278 -2.313,-0.554 -4.446,0 -6.301,1.207 -1.942,1.297 -3.336,2.965 -4.262,5.281 -0.09,0.274 -0.281,0.649 -0.461,0.833 0,0.183 -0.094,0.375 -0.187,0.464 -0.926,1.575 -2.504,2.504 -4.266,2.684 V 101.11 c 0.652,0.093 1.301,0.187 1.949,0.465 2.039,0.464 4.262,0.093 5.93,-1.024 1.668,-1.109 3.336,-2.871 4.082,-4.91 0.09,-0.742 0.367,-1.391 0.738,-2.039 1.02,-1.758 2.969,-2.781 4.91,-2.594 h 0.094 c 0.649,0 1.297,0.184 1.949,0.461 2.04,0.375 4.262,0 5.836,-1.016 1.762,-1.207 3.43,-3.062 4.266,-5.191 0.09,-0.648 0.277,-1.207 0.555,-1.762 1.019,-1.668 2.777,-2.593 4.539,-2.691 z M 56.996,20.203 v 10.563 c 1.672,-0.184 3.152,-1.016 4.082,-2.594 1.387,-2.5 0.551,-5.746 -1.949,-7.23 -0.649,-0.367 -1.391,-0.645 -2.133,-0.739 m 0,20.297 v 10.657 c 1.578,-0.278 3.059,-1.204 3.988,-2.688 1.481,-2.5 0.555,-5.746 -1.945,-7.226 -0.652,-0.372 -1.301,-0.649 -2.043,-0.743 m 0,20.11 c 0.93,0 1.856,0.277 2.692,0.742 2.593,1.484 3.429,4.726 1.941,7.324 -1.016,1.668 -2.777,2.594 -4.633,2.594 z m 0,20.484 c -1.855,-0.094 -3.797,0.832 -4.82,2.594 -1.387,2.594 -0.555,5.84 1.949,7.32 0.926,0.465 1.945,0.746 2.871,0.746 z m 0,30.676 v -10.66 c -1.945,-0.094 -3.891,0.84 -5.004,2.691 -1.484,2.5 -0.554,5.746 1.949,7.227 1.016,0.558 2.039,0.832 3.055,0.742 m 0,-40.504 V 60.61 c -1.855,0 -3.613,0.929 -4.539,2.691 -1.484,2.5 -0.648,5.742 1.855,7.227 0.829,0.558 1.762,0.738 2.684,0.738 m 0,-20.109 c -0.742,0.093 -1.574,0 -2.41,-0.278 -2.313,-0.554 -4.539,-0.09 -6.391,1.207 -1.949,1.297 -3.34,2.871 -4.265,5.188 -0.094,0.371 -0.278,0.652 -0.461,0.929 0,0.09 -0.094,0.274 -0.188,0.461 -1.484,2.504 -4.73,3.336 -7.324,1.946 -2.5,-1.481 -3.426,-4.817 -1.945,-7.321 1.394,-2.41 4.449,-3.336 6.949,-2.132 2.043,0.371 4.269,0 5.937,-1.114 1.758,-1.113 3.43,-2.965 4.168,-5.191 0.094,-0.551 0.372,-1.109 0.649,-1.668 1.113,-1.941 3.242,-2.871 5.281,-2.684 z m 0,-20.391 V 20.203 c -2.039,-0.187 -4.078,0.739 -5.187,2.594 -0.278,0.555 -0.559,1.207 -0.649,1.762 -0.742,2.133 -2.41,4.078 -4.172,5.191 -1.668,1.11 -3.894,1.481 -5.933,1.11 -0.555,-0.278 -1.203,-0.465 -1.852,-0.555 h -0.094 c -1.941,-0.09 -3.984,0.832 -5.004,2.688 -0.371,0.648 -0.558,1.296 -0.648,1.945 -0.832,2.039 -2.41,3.894 -4.078,5.004 -1.668,1.023 -3.891,1.394 -6.024,1.023 C 22.797,40.684 22.152,40.5 21.5,40.5 v 10.563 c 1.668,-0.09 3.336,-1.016 4.172,-2.594 0.094,-0.184 0.187,-0.371 0.277,-0.461 0.184,-0.281 0.281,-0.555 0.465,-0.93 0.832,-2.316 2.223,-3.89 4.262,-5.191 1.855,-1.203 3.988,-1.758 6.211,-1.203 0.461,0.094 0.925,0.187 1.39,0.281 h 0.094 c 1.945,0.18 3.984,-0.836 5.004,-2.594 0.184,-0.281 0.277,-0.558 0.371,-0.836 0.09,-0.187 0.184,-0.371 0.277,-0.558 0.832,-2.317 2.317,-3.984 4.266,-5.281 1.848,-1.203 4.078,-1.672 6.391,-1.114 0.742,0.278 1.574,0.278 2.316,0.184 M 21.5,0 v 10.657 c 1.855,0 3.617,-1.02 4.633,-2.688 1.488,-2.5 0.558,-5.84 -1.942,-7.324 C 23.355,0.184 22.426,0 21.5,0 m 0,20.387 c 0.742,0 1.391,0.188 2.039,0.555 2.133,0.371 4.359,0 6.023,-1.11 1.766,-1.113 3.43,-3.058 4.172,-5.191 0.094,-0.555 0.371,-1.203 0.649,-1.758 1.484,-2.504 4.726,-3.34 7.324,-1.855 2.5,1.484 3.336,4.726 1.852,7.23 -1.297,2.219 -3.985,3.242 -6.305,2.41 -2.313,-0.652 -4.539,-0.093 -6.391,1.11 -1.945,1.3 -3.429,2.968 -4.265,5.281 -0.094,0.371 -0.274,0.652 -0.465,0.926 -0.09,0.093 -0.09,0.281 -0.184,0.371 -1.019,1.668 -2.687,2.597 -4.449,2.691 z m 0,30.676 V 40.5 c -1.945,-0.187 -3.984,0.743 -5.004,2.594 -0.461,0.832 -0.742,1.762 -0.742,2.594 v 0.094 c 0,1.855 1.023,3.613 2.687,4.636 0.93,0.555 2.043,0.739 3.059,0.645 m 0,-20.016 v -10.66 c -1.945,-0.09 -3.797,0.926 -4.82,2.688 -1.481,2.503 -0.555,5.746 1.949,7.226 0.922,0.559 1.855,0.746 2.871,0.746 m 0,-20.39 L 21.5,0 c -1.852,0 -3.613,0.926 -4.633,2.594 -1.484,2.594 -0.555,5.836 1.945,7.324 0.836,0.461 1.762,0.739 2.688,0.739"
         style="fill:#3799ab;fill-opacity:1;fill-rule:evenodd;stroke:none"
         id="path162" />
      <path
         d="m 106.676,41.243 c 1.762,-0.098 3.426,-1.024 4.355,-2.598 1.481,-2.594 0.649,-5.84 -1.949,-7.32 -0.738,-0.465 -1.57,-0.649 -2.406,-0.743 z m 5.746,35.218 v -0.187 c -0.094,-1.762 -1.02,-3.52 -2.688,-4.543 -0.925,-0.461 -2.039,-0.738 -3.058,-0.645 v 10.657 c 2.039,0.093 3.984,-0.833 5.004,-2.688 0.465,-0.836 0.648,-1.668 0.742,-2.594 m -5.746,-25.488 v 10.566 c 1.762,-0.093 3.426,-1.023 4.355,-2.597 1.391,-2.504 0.555,-5.84 -1.949,-7.321 -0.738,-0.371 -1.574,-0.648 -2.406,-0.648 M 104.73,40.965 c 0.645,0.278 1.297,0.371 1.946,0.278 V 30.582 c -1.856,0 -3.801,0.93 -4.821,2.688 -0.371,0.558 -0.554,1.113 -0.652,1.762 -0.644,1.945 -2.133,3.613 -3.707,4.816 v 2.875 c 0.281,-0.184 0.559,-0.371 0.836,-0.555 1.856,-1.203 4.078,-1.761 6.398,-1.203 m 1.946,40.778 V 71.086 c -1.668,0.09 -3.34,1.016 -4.266,2.594 -1.48,2.594 -0.555,5.836 1.945,7.32 0.747,0.465 1.579,0.649 2.321,0.743 m 0,-20.204 V 50.973 c -1.946,-0.184 -3.895,0.832 -4.914,2.594 -0.278,0.558 -0.559,1.203 -0.649,1.761 -0.648,1.946 -2.043,3.614 -3.617,4.727 l 0.004,2.871 c 0.277,-0.09 0.461,-0.277 0.738,-0.461 1.856,-1.203 4.082,-1.762 6.399,-1.203 0.648,0.277 1.39,0.371 2.039,0.277 M 97.5,39.848 c -0.094,0.094 -0.277,0.281 -0.465,0.375 -1.668,1.02 -3.89,1.387 -5.93,1.02 -0.554,-0.278 -1.203,-0.461 -1.855,-0.461 h -0.184 c -1.949,-0.188 -3.89,0.828 -4.914,2.593 -0.371,0.645 -0.554,1.297 -0.644,2.035 -0.742,1.672 -1.949,3.247 -3.34,4.36 v 2.871 c 0.187,-0.09 0.371,-0.184 0.465,-0.371 1.851,-1.203 4.074,-1.668 6.305,-1.203 0.46,0.187 0.921,0.277 1.386,0.277 2.039,0.188 4.078,-0.742 5.098,-2.594 0.187,-0.281 0.277,-0.558 0.371,-0.742 0.094,-0.183 0.187,-0.371 0.277,-0.648 0.742,-1.946 1.856,-3.43 3.43,-4.637 z m 0,23.078 v -2.871 c -0.188,0.184 -0.371,0.371 -0.555,0.461 -1.668,1.113 -3.894,1.484 -5.933,1.023 -2.5,-1.113 -5.563,-0.281 -6.953,2.129 -1.481,2.594 -0.555,5.84 1.949,7.325 2.504,1.48 5.84,0.648 7.32,-1.946 0.094,-0.094 0.188,-0.281 0.188,-0.465 0.183,-0.277 0.371,-0.558 0.461,-0.832 0.742,-2.039 1.945,-3.527 3.523,-4.824 M 80.168,29.84 v 2.875 c 0.277,-0.183 0.461,-0.277 0.738,-0.465 1.856,-1.203 4.082,-1.757 6.399,-1.203 2.316,0.836 5.004,-0.09 6.3,-2.32 1.485,-2.59 0.653,-5.836 -1.945,-7.317 -2.504,-1.484 -5.75,-0.558 -7.226,1.942 -0.375,0.558 -0.559,1.113 -0.653,1.766 -0.648,1.851 -2.039,3.609 -3.613,4.722 m 0,19.926 c -0.277,0.187 -0.555,0.371 -0.742,0.559 -1.668,1.109 -3.985,1.48 -6.024,1.019 -0.554,-0.281 -1.207,-0.371 -1.851,-0.461 v 10.656 c 1.668,-0.187 3.242,-1.113 4.168,-2.687 0.093,-0.094 0.183,-0.277 0.277,-0.465 0.188,-0.184 0.281,-0.555 0.461,-0.832 0.742,-2.133 2.043,-3.707 3.711,-4.914 z m 0,-17.051 V 29.84 c -0.184,0.184 -0.371,0.281 -0.555,0.461 -1.668,1.117 -3.894,1.488 -6.027,1.024 -0.648,-0.278 -1.391,-0.465 -2.035,-0.465 v 10.66 c 1.758,-0.094 3.429,-1.02 4.351,-2.688 0.094,-0.187 0.192,-0.281 0.282,-0.461 0.183,-0.281 0.277,-0.558 0.464,-0.929 0.743,-1.946 1.946,-3.524 3.52,-4.727 M 71.551,10.379 v 10.656 c 1.851,0 3.609,-0.925 4.633,-2.593 1.386,-2.594 0.554,-5.84 -1.95,-7.321 -0.832,-0.464 -1.757,-0.742 -2.683,-0.742 m 0,40.5 c -2.039,-0.09 -3.989,0.836 -5.008,2.688 -0.461,0.742 -0.738,1.668 -0.738,2.597 v 0.09 c 0,1.762 0.925,3.617 2.683,4.543 0.926,0.551 2.039,0.832 3.063,0.742 z m 0,-9.359 V 30.86 c -1.946,-0.094 -3.801,0.832 -4.821,2.597 -1.484,2.594 -0.648,5.84 1.946,7.321 0.926,0.558 1.851,0.742 2.875,0.742 m 0,-20.485 V 10.379 c -1.856,0 -3.617,1.016 -4.637,2.684 -1.48,2.504 -0.648,5.844 1.945,7.23 0.836,0.559 1.762,0.742 2.692,0.742"
         style="fill:#bae3d9;fill-opacity:1;fill-rule:evenodd;stroke:none"
         id="path164" />
      <path
         d="m 312.055,84.153 v 2.222 c 1.668,0 2.871,0.743 3.519,2.317 0.555,1.574 0.926,3.894 0.926,7.043 0,3.062 -0.371,5.472 -0.926,6.953 -0.648,1.574 -1.851,2.41 -3.519,2.41 v 2.133 c 2.504,0 4.265,-1.02 5.468,-3.059 1.204,-2.039 1.852,-4.914 1.852,-8.433 0,-3.618 -0.648,-6.489 -1.762,-8.528 -1.203,-2.039 -3.054,-3.058 -5.558,-3.058 m 0,23.078 v -2.133 c -1.668,0 -2.782,-0.836 -3.43,-2.41 -0.648,-1.574 -0.926,-3.891 -0.926,-6.953 0,-3.149 0.278,-5.563 0.832,-7.043 0.653,-1.574 1.758,-2.317 3.524,-2.317 v -2.222 c -2.504,0 -4.356,1.019 -5.563,3.058 -1.113,2.039 -1.762,4.91 -1.762,8.524 0,3.613 0.649,6.398 1.762,8.437 1.207,2.039 3.059,3.059 5.563,3.059 M 229.383,91.2 v 2.312 h 2.687 l -1.945,7.137 c -0.184,0.648 -0.277,1.301 -0.465,1.855 -0.09,0.555 -0.183,0.922 -0.277,1.203 v -0.089 3.148 h 1.019 c 0.278,0 0.371,-0.094 0.461,-0.371 l 6.492,-21.039 0.184,-0.555 c 0,-0.094 -0.09,-0.183 -0.465,-0.183 h -1.945 c -0.371,0 -0.555,0.089 -0.555,0.367 l -1.851,6.215 z m 27.246,-6.215 c 0,-0.278 -0.09,-0.367 -0.367,-0.367 h -1.856 c -0.277,0 -0.465,0.089 -0.465,0.367 l -0.461,16.683 v 2.039 c 0,-0.742 -0.187,-1.484 -0.464,-2.316 l -3.895,-11.215 c -0.09,-0.281 -0.273,-0.371 -0.461,-0.371 h -1.019 c -0.188,0 -0.371,0.09 -0.461,0.371 l -3.707,11.215 c -0.282,0.832 -0.465,1.574 -0.465,2.316 v -2.039 l -0.465,-16.683 c 0,-0.278 -0.094,-0.371 -0.371,-0.371 l -1.945,0.004 c -0.188,0 -0.372,0.089 -0.372,0.367 l 1.301,21.41 c 0,0.277 0.09,0.371 0.367,0.371 h 2.039 c 0.184,0 0.278,-0.094 0.372,-0.371 l 3.89,-11.121 c 0,-0.094 0,-0.278 0.094,-0.465 0.094,-0.277 0.187,-0.738 0.281,-1.481 0.09,0.278 0.184,0.645 0.367,1.11 0.094,0.465 0.094,0.742 0.188,0.836 l 3.801,11.121 c 0.09,0.277 0.183,0.371 0.367,0.371 h 2.039 c 0.281,0 0.371,-0.094 0.371,-0.371 z m 15.293,0.093 c 0,-0.277 -0.09,-0.46 -0.367,-0.46 h -10.012 c -0.277,0 -0.371,0.089 -0.371,0.367 v 21.41 c 0,0.277 0.094,0.371 0.371,0.371 h 10.102 c 0.093,0 0.277,0 0.277,-0.094 0.094,0 0.094,-0.09 0.094,-0.09 l -0.094,-0.371 -0.461,-1.39 c 0,-0.188 -0.184,-0.278 -0.465,-0.278 h -7.226 v -7.23 h 6.39 c 0.281,0 0.371,-0.094 0.371,-0.371 v -1.481 c 0,-0.281 -0.09,-0.371 -0.371,-0.371 h -6.39 v -8.16 h 7.785 c 0.277,0 0.367,-0.184 0.367,-0.371 z m 16.125,-0.093 c 0,-0.278 -0.18,-0.367 -0.461,-0.367 h -1.762 c -0.183,0 -0.371,0.089 -0.554,0.367 l -7.415,15.941 c -0.464,0.926 -0.742,1.856 -0.925,2.781 0.09,-0.554 0.183,-1.113 0.277,-1.574 V 84.985 c 0,-0.278 -0.094,-0.367 -0.371,-0.367 h -1.672 c -0.273,0 -0.367,0.089 -0.367,0.367 v 21.41 c 0,0.277 0.094,0.371 0.367,0.371 h 2.227 c 0.183,0 0.371,-0.094 0.464,-0.277 l 7.137,-15.106 c 0.09,-0.281 0.278,-0.742 0.367,-1.117 0.188,-0.461 0.282,-0.926 0.375,-1.297 h 0.09 c 0,0.188 -0.09,0.465 -0.183,0.926 -0.094,0.469 -0.094,0.836 -0.094,1.023 v 15.477 c 0,0.277 0.094,0.371 0.367,0.371 h 1.672 c 0.281,0 0.461,-0.094 0.461,-0.371 z m 10.195,19.558 V 84.985 c 0,-0.278 -0.09,-0.367 -0.371,-0.367 h -1.851 c -0.278,0 -0.368,0.089 -0.368,0.367 v 19.558 h -4.824 c -0.277,0 -0.371,0.09 -0.371,0.371 v 1.481 c 0,0.277 0.094,0.371 0.371,0.371 h 12.699 c 0.278,0 0.461,-0.094 0.461,-0.277 l -0.183,-0.371 -0.465,-1.204 c -0.09,-0.281 -0.278,-0.371 -0.461,-0.371 z m -68.859,2.223 v -3.148 c -0.094,-0.372 -0.094,-0.653 -0.184,-0.836 0,-0.188 -0.187,-0.832 -0.558,-2.133 l -1.946,-7.137 h 2.688 V 91.2 h -3.34 l -1.57,-6.215 c -0.094,-0.278 -0.282,-0.367 -0.649,-0.367 h -1.949 c -0.371,0 -0.461,0.089 -0.461,0.183 l 0.09,0.555 6.488,21.039 c 0.094,0.277 0.281,0.371 0.461,0.371 z M 200.098,92.77 v 4.078 c 0.832,0.187 1.57,0.371 2.129,0.742 0.742,0.555 1.207,1.668 1.207,3.246 0,1.574 -0.372,2.59 -1.114,3.055 -0.652,0.281 -1.39,0.559 -2.222,0.559 v 2.316 c 1.668,-0.094 2.964,-0.371 4.074,-1.02 1.301,-0.742 1.855,-2.32 1.855,-4.82 0,-1.668 -0.371,-2.965 -1.297,-3.891 -0.832,-1.023 -1.855,-1.761 -2.964,-2.132 l 5.375,-9.731 0.183,-0.371 c -0.183,-0.183 -0.281,-0.281 -0.371,-0.281 l -2.039,-0.367 c -0.277,0 -0.371,0.093 -0.465,0.273 z m 15.566,11.773 V 84.985 c 0,-0.278 -0.09,-0.367 -0.371,-0.367 h -1.852 c -0.277,0 -0.371,0.089 -0.371,0.367 v 19.558 h -4.82 c -0.277,0 -0.371,0.09 -0.371,0.371 v 1.481 c 0,0.277 0.094,0.371 0.371,0.371 h 12.699 c 0.278,0 0.371,-0.094 0.371,-0.277 l -0.093,-0.371 -0.461,-1.204 c -0.094,-0.281 -0.278,-0.371 -0.465,-0.371 z m -15.566,2.223 v -2.316 c -0.282,0.093 -0.559,0.093 -0.836,0.093 h -2.5 v -7.695 h 3.336 V 92.77 l -1.024,1.945 h -2.312 v -9.73 c 0,-0.278 -0.188,-0.367 -0.375,-0.367 h -1.946 c -0.183,0 -0.367,0.089 -0.367,0.367 v 21.41 c 0,0.277 0.184,0.371 0.367,0.371 z M 183.227,91.2 v 2.312 h 2.687 l -1.945,7.137 c -0.184,0.648 -0.367,1.301 -0.461,1.855 -0.188,0.555 -0.278,0.922 -0.278,1.203 v -0.089 3.148 h 1.016 c 0.188,0 0.371,-0.094 0.465,-0.371 l 6.488,-21.039 0.188,-0.555 c 0,-0.094 -0.188,-0.183 -0.469,-0.183 h -2.035 c -0.278,0 -0.465,0.089 -0.559,0.367 l -1.851,6.215 z m 0,15.566 v -3.148 c -0.09,-0.372 -0.184,-0.653 -0.184,-0.836 -0.094,-0.188 -0.277,-0.832 -0.555,-2.133 l -1.949,-7.137 h 2.688 V 91.2 h -3.332 l -1.579,-6.215 c -0.089,-0.278 -0.281,-0.367 -0.554,-0.367 h -2.039 c -0.282,0 -0.465,0.089 -0.465,0.183 l 0.187,0.555 6.391,21.039 c 0,0.277 0.187,0.371 0.465,0.371 z M 168.215,93.973 v 2.32 c 0.926,0.184 1.668,0.465 2.223,0.836 0.742,0.649 1.113,1.852 1.113,3.707 0,1.574 -0.371,2.59 -1.113,3.055 -0.555,0.281 -1.297,0.559 -2.223,0.559 v 2.312 c 1.668,-0.09 3.058,-0.367 4.172,-1.016 1.199,-0.742 1.851,-2.32 1.851,-4.824 0,-2.5 -0.652,-4.351 -2.039,-5.371 -1.113,-0.836 -2.41,-1.387 -3.984,-1.578 m -30.492,-6.855 c 1.207,0.277 2.132,1.019 2.683,2.039 0.746,1.574 1.117,3.8 1.117,6.855 0,3.34 -0.464,5.656 -1.394,6.77 -0.555,0.738 -1.387,1.203 -2.406,1.48 v 2.41 c 1.851,-0.277 3.336,-0.926 4.445,-1.949 1.578,-1.387 2.32,-4.352 2.32,-8.801 0,-3.984 -0.742,-6.859 -2.133,-8.621 -1.019,-1.297 -2.593,-2.129 -4.632,-2.5 z m 30.492,19.648 v -2.316 c -0.184,0.093 -0.465,0.093 -0.836,0.093 h -2.41 v -8.34 h 2.043 c 0.461,0 0.828,0.09 1.203,0.09 v -2.32 h -3.246 v -8.988 c 0,-0.278 -0.184,-0.367 -0.461,-0.367 h -1.852 c -0.281,0 -0.375,0.089 -0.375,0.367 v 21.41 c 0,0.277 0.094,0.371 0.375,0.371 z m -9.176,-21.688 c 0,-0.277 -0.187,-0.46 -0.465,-0.46 h -9.918 c -0.277,0 -0.461,0.089 -0.461,0.367 v 21.41 c 0,0.277 0.184,0.371 0.461,0.371 h 10.012 c 0.184,0 0.277,0 0.371,-0.094 l 0.09,-0.09 -0.09,-0.371 -0.465,-1.39 c -0.09,-0.188 -0.277,-0.278 -0.461,-0.278 h -7.226 v -7.23 h 6.39 c 0.278,0 0.371,-0.094 0.371,-0.371 v -1.481 c 0,-0.281 -0.093,-0.371 -0.371,-0.371 h -6.39 v -8.16 h 7.781 c 0.277,0 0.371,-0.184 0.371,-0.371 z m -23.078,1.852 c 0.652,0 1.297,0 1.762,0.188 v -2.317 c -0.649,-0.09 -1.485,-0.183 -2.317,-0.183 h -3.707 c -0.281,0 -0.371,0.089 -0.371,0.367 v 21.41 c 0,0.277 0.09,0.371 0.371,0.371 h 4.078 c 0.645,0 1.387,0 1.946,-0.094 v -2.41 c -0.559,0.188 -1.203,0.281 -2.039,0.281 h -1.762 V 86.93 Z"
         style="fill:#0b0d0b;fill-opacity:1;fill-rule:evenodd;stroke:none"
         id="path166" />
      <path
         d="m 352.461,31.883 v 0.832 h 1.301 l -1.301,4.352 v 0.929 h 0.742 l 2.598,-8.062 h -1.113 l -0.653,1.949 z m 0,6.113 v -0.929 l -1.297,-4.352 h 1.297 v -0.832 h -1.481 l -0.652,-1.949 h -1.016 l 2.594,8.062 z m -6.949,-8.062 v 0.926 c 0.465,0 0.832,0.093 1.109,0.375 0.277,0.277 0.371,0.648 0.371,1.015 0,0.559 -0.183,0.93 -0.461,1.114 -0.277,0.183 -0.554,0.281 -1.019,0.371 v 0.832 h 0.093 c 0.372,0 0.649,0.183 0.833,0.375 0.183,0.277 0.281,0.551 0.281,0.922 0,0.371 -0.098,0.652 -0.281,0.925 -0.184,0.188 -0.461,0.278 -0.926,0.278 v 0.929 h 0.183 c 0.465,0 0.836,-0.093 1.114,-0.183 0.277,-0.188 0.464,-0.371 0.648,-0.555 0.094,-0.281 0.188,-0.465 0.277,-0.648 v -0.465 c 0,-0.555 -0.089,-1.024 -0.277,-1.297 -0.184,-0.371 -0.559,-0.559 -1.019,-0.652 v -0.09 c 0.554,0 0.925,-0.281 1.207,-0.559 0.277,-0.367 0.371,-0.738 0.371,-1.297 0,-0.925 -0.188,-1.574 -0.653,-1.851 -0.465,-0.281 -1.109,-0.465 -1.758,-0.465 z m 0,8.062 v -0.929 h -1.485 v -2.5 h 1.485 v -0.832 h -1.485 V 30.86 h 1.485 v -0.926 h -2.5 v 8.062 z M 317.613,29.84 v 0.742 c 0.282,0 0.559,0.094 0.742,0.278 0.184,0.281 0.278,0.465 0.278,0.742 h 1.019 c 0,-0.559 -0.183,-1.02 -0.554,-1.297 -0.371,-0.371 -0.832,-0.465 -1.485,-0.465 m 0,2.598 v 0.742 h 1.114 c 0,0.738 -0.094,1.203 -0.282,1.48 -0.179,0.188 -0.461,0.372 -0.832,0.372 v 0.648 c 0.832,0 1.391,-0.184 1.668,-0.648 0.281,-0.372 0.371,-1.114 0.371,-2.133 v -0.461 z m 5.563,-2.598 c -0.653,0 -1.114,0.094 -1.485,0.465 -0.277,0.277 -0.461,0.738 -0.461,1.391 h 1.016 c 0,-0.371 0.098,-0.559 0.188,-0.836 0.089,-0.184 0.371,-0.278 0.742,-0.278 0.277,0 0.554,0.094 0.738,0.188 0.188,0.183 0.281,0.367 0.281,0.648 0,0.278 -0.371,0.555 -1.019,0.926 -0.653,0.371 -1.114,0.555 -1.391,0.836 -0.277,0.184 -0.465,0.461 -0.465,0.926 0,0.461 0.188,0.836 0.465,1.113 0.277,0.277 0.738,0.461 1.485,0.461 0.55,0 1.015,-0.09 1.296,-0.371 0.372,-0.277 0.461,-0.649 0.461,-1.203 h -1.015 c 0,0.554 -0.282,0.926 -0.836,0.926 -0.278,0 -0.465,-0.09 -0.653,-0.282 -0.179,-0.09 -0.179,-0.273 -0.179,-0.554 0,-0.184 0.273,-0.555 0.926,-0.832 0.644,-0.371 1.109,-0.649 1.386,-0.836 0.282,-0.184 0.465,-0.461 0.465,-1.016 0,-0.559 -0.183,-1.023 -0.555,-1.297 -0.371,-0.281 -0.836,-0.375 -1.39,-0.375 m 5.84,3.613 h 2.5 v -0.925 h -2.5 z m 6.761,4.543 h 1.024 v -5.187 c 0,-0.836 0.09,-1.395 0.371,-1.672 0.273,-0.367 0.648,-0.461 1.109,-0.461 0.559,0 0.926,0.094 1.207,0.461 0.184,0.281 0.367,0.836 0.367,1.672 v 5.187 h 1.024 v -5.097 c 0,-1.114 -0.277,-1.946 -0.649,-2.41 -0.375,-0.461 -1.023,-0.743 -1.949,-0.743 -0.836,0 -1.48,0.282 -1.851,0.743 -0.461,0.464 -0.653,1.296 -0.653,2.41 z M 317.613,35.68 v -0.648 c -0.371,0 -0.648,-0.184 -0.836,-0.465 -0.183,-0.184 -0.273,-0.742 -0.273,-1.387 h 1.109 v -0.742 h -1.109 c 0,-0.742 0.09,-1.203 0.273,-1.485 0.192,-0.277 0.465,-0.371 0.836,-0.371 V 29.84 c -0.648,0 -1.203,0.188 -1.574,0.559 -0.371,0.371 -0.559,1.113 -0.559,2.316 0,0.926 0.188,1.668 0.465,2.227 0.188,0.461 0.832,0.738 1.668,0.738 m -8.801,-5.84 v 0.742 c 0.278,0 0.461,0.188 0.645,0.461 0.277,0.282 0.371,0.84 0.371,1.672 h -1.016 v 0.649 c 0.278,0.089 0.645,0.089 1.016,0.089 0,0.465 -0.094,0.93 -0.183,1.114 -0.094,0.281 -0.372,0.465 -0.743,0.465 h -0.09 v 0.648 h 0.09 c 0.649,0 1.203,-0.187 1.387,-0.461 0.281,-0.277 0.469,-0.652 0.469,-1.207 v -2.687 c 0,-0.465 0,-0.926 0.09,-1.391 h -1.02 v 0.836 c -0.183,-0.371 -0.371,-0.559 -0.555,-0.742 -0.187,-0.094 -0.281,-0.094 -0.461,-0.188 m 4.911,0.094 h -0.926 v 8.062 h 0.926 z m -4.911,5.746 v -0.648 c -0.281,-0.09 -0.464,-0.09 -0.558,-0.282 -0.188,-0.09 -0.277,-0.367 -0.277,-0.644 v -0.094 h -1.02 c 0,0.555 0.184,1.02 0.559,1.297 0.273,0.281 0.738,0.371 1.296,0.371 m 0,-2.316 v -0.649 c -0.187,-0.094 -0.374,-0.094 -0.464,-0.187 -0.371,-0.09 -0.559,-0.371 -0.559,-0.926 0,-0.277 0.094,-0.559 0.188,-0.742 0.183,-0.184 0.371,-0.278 0.648,-0.278 h 0.187 V 29.84 h -0.371 c -0.652,0 -1.019,0.188 -1.207,0.465 -0.277,0.277 -0.371,0.738 -0.371,1.391 0,0.742 0.282,1.203 0.832,1.39 0.282,0.184 0.653,0.278 1.117,0.278 M 289.625,29.84 v 0.742 c 0.277,0 0.559,0.188 0.742,0.461 0.184,0.282 0.278,0.84 0.278,1.672 h -1.02 v 0.649 c 0.277,0.089 0.648,0.089 1.02,0.089 0,0.465 0,0.93 -0.188,1.114 -0.09,0.281 -0.273,0.465 -0.738,0.465 h -0.094 v 0.648 h 0.094 c 0.648,0 1.203,-0.187 1.48,-0.461 0.188,-0.277 0.371,-0.652 0.371,-1.207 v -2.687 c 0,-0.465 0,-0.926 0.094,-1.391 h -1.019 v 0.836 c -0.188,-0.371 -0.372,-0.559 -0.555,-0.742 -0.098,-0.094 -0.278,-0.094 -0.465,-0.188 m 4.172,5.75 v 1.11 l 0.832,0.367 V 35.59 h 1.297 v -0.742 h -1.297 v -3.43 c 0,-0.281 0.094,-0.465 0.187,-0.558 0.09,-0.184 0.278,-0.278 0.649,-0.278 l 0.461,0.094 v -0.742 h -0.461 c -0.188,-0.094 -0.371,-0.094 -0.461,-0.094 -0.84,0 -1.207,0.375 -1.207,1.02 v 3.988 h -0.93 v 0.742 z m 6.301,0 h 0.925 v -5.656 h -0.925 v 0.648 c -0.368,-0.464 -0.832,-0.742 -1.485,-0.742 -1.015,0 -1.574,0.465 -1.574,1.485 v 4.265 h 0.93 v -3.894 c 0,-0.371 0.09,-0.653 0.273,-0.836 0.188,-0.184 0.371,-0.371 0.742,-0.371 0.282,0 0.555,0.187 0.746,0.371 0.18,0.183 0.368,0.558 0.368,1.023 z m 3.8,-0.84 c 0.184,0.371 0.372,0.653 0.649,0.743 0.277,0.093 0.648,0.187 1.113,0.187 v -0.93 h -0.465 c -0.465,0 -0.836,-0.09 -1.019,-0.367 -0.188,-0.277 -0.278,-0.648 -0.278,-1.113 v -3.336 h -0.925 v 5.656 h 0.925 z m -14.273,0.93 v -0.648 c -0.277,-0.09 -0.465,-0.09 -0.559,-0.282 -0.183,-0.09 -0.277,-0.367 -0.277,-0.644 v -0.094 h -0.926 c 0,0.555 0.094,1.02 0.461,1.297 0.281,0.281 0.742,0.371 1.301,0.371 m 0,-2.316 v -0.649 c -0.184,-0.094 -0.371,-0.094 -0.465,-0.187 -0.371,-0.09 -0.555,-0.371 -0.555,-0.926 0,-0.277 0.09,-0.559 0.184,-0.742 0.188,-0.184 0.371,-0.278 0.742,-0.278 h 0.094 V 29.84 h -0.371 c -0.559,0 -1.02,0.188 -1.203,0.465 -0.278,0.277 -0.371,0.738 -0.371,1.391 0,0.742 0.277,1.203 0.836,1.39 0.273,0.184 0.644,0.278 1.109,0.278 M 260.523,29.84 v 0.742 c 0.278,0 0.555,0.188 0.743,0.461 0.183,0.282 0.277,0.84 0.277,1.672 h -1.02 v 0.649 c 0.278,0.089 0.653,0.089 1.02,0.089 0,0.465 0,0.93 -0.094,1.114 -0.094,0.281 -0.371,0.465 -0.832,0.465 h -0.094 v 0.648 h 0.094 c 0.738,0 1.203,-0.187 1.481,-0.461 0.281,-0.277 0.375,-0.652 0.375,-1.207 v -2.687 c 0,-0.465 0,-0.926 0.089,-1.391 h -1.019 v 0.836 c -0.094,-0.371 -0.367,-0.559 -0.559,-0.742 -0.089,-0.094 -0.277,-0.094 -0.461,-0.188 m 5.653,0 c -0.555,0 -1.11,0.094 -1.391,0.465 -0.371,0.277 -0.555,0.738 -0.555,1.391 h 1.114 c 0,-0.371 0,-0.559 0.094,-0.836 0.179,-0.184 0.367,-0.278 0.832,-0.278 0.277,0 0.46,0.094 0.648,0.188 0.187,0.183 0.277,0.367 0.277,0.648 0,0.278 -0.277,0.555 -0.925,0.926 -0.653,0.371 -1.204,0.555 -1.485,0.836 -0.277,0.184 -0.371,0.461 -0.371,0.926 0,0.461 0.094,0.836 0.465,1.113 0.277,0.277 0.738,0.461 1.48,0.461 0.559,0 0.93,-0.09 1.301,-0.371 0.278,-0.277 0.461,-0.649 0.461,-1.203 h -1.016 c 0,0.554 -0.281,0.926 -0.835,0.926 -0.278,0 -0.461,-0.09 -0.649,-0.282 -0.183,-0.09 -0.277,-0.273 -0.277,-0.554 0,-0.184 0.371,-0.555 1.015,-0.832 0.653,-0.371 1.118,-0.649 1.395,-0.836 0.277,-0.184 0.461,-0.461 0.461,-1.016 0,-0.559 -0.188,-1.023 -0.555,-1.297 -0.371,-0.281 -0.836,-0.375 -1.484,-0.375 m 7.785,1.203 1.391,4.543 1.019,0.004 -2.594,-7.785 h -0.925 l 0.644,2.129 -1.941,5.656 h 1.109 z m 11.769,6.953 v -8.062 h -1.386 l -3.246,6.953 v -6.953 h -0.926 v 8.062 h 1.48 l 3.153,-6.859 v 6.859 z M 260.523,35.68 v -0.648 c -0.281,-0.09 -0.461,-0.09 -0.554,-0.282 -0.188,-0.09 -0.281,-0.367 -0.281,-0.644 v -0.094 h -0.922 c 0,0.555 0.089,1.02 0.461,1.297 0.277,0.281 0.742,0.371 1.296,0.371 m 0,-2.316 v -0.649 c -0.183,-0.094 -0.371,-0.094 -0.461,-0.187 -0.371,-0.09 -0.558,-0.371 -0.558,-0.926 0,-0.277 0.094,-0.559 0.187,-0.742 0.18,-0.184 0.371,-0.278 0.739,-0.278 h 0.093 V 29.84 h -0.371 c -0.554,0 -1.019,0.188 -1.207,0.465 -0.277,0.277 -0.371,0.738 -0.371,1.391 0,0.742 0.281,1.203 0.836,1.39 0.281,0.184 0.652,0.278 1.113,0.278 M 245.414,29.84 v 0.742 c 0.281,0 0.469,0.188 0.652,0.461 0.184,0.282 0.372,0.84 0.372,1.672 h -1.024 v 0.649 c 0.281,0.089 0.652,0.089 1.024,0.089 0,0.465 -0.094,0.93 -0.188,1.114 -0.094,0.281 -0.367,0.465 -0.836,0.465 v 0.648 h 0.098 c 0.644,0 1.109,-0.187 1.386,-0.461 0.282,-0.277 0.372,-0.652 0.372,-1.207 v -2.687 c 0,-0.465 0.093,-0.926 0.183,-1.391 h -1.015 v 0.836 c -0.188,-0.371 -0.372,-0.559 -0.653,-0.742 -0.09,-0.094 -0.277,-0.094 -0.371,-0.188 m 6.953,3.895 c 0,0.461 -0.094,0.742 -0.277,0.925 -0.188,0.188 -0.278,0.282 -0.559,0.282 -0.371,0 -0.648,-0.094 -0.832,-0.371 -0.183,-0.282 -0.371,-0.746 -0.371,-1.485 0,-0.929 0.094,-1.574 0.277,-1.945 0.188,-0.371 0.465,-0.559 0.926,-0.559 0.281,0 0.465,0.094 0.653,0.371 0.089,0.188 0.183,0.559 0.183,0.832 h 0.926 c 0,-0.648 -0.184,-1.203 -0.559,-1.48 -0.367,-0.277 -0.738,-0.465 -1.203,-0.465 -0.644,0 -1.203,0.188 -1.574,0.559 -0.367,0.371 -0.555,1.113 -0.555,2.316 0,0.926 0.188,1.668 0.371,2.227 0.278,0.461 0.926,0.738 1.758,0.738 1.207,0 1.766,-0.648 1.766,-1.945 z m 2.965,1.855 v 1.11 l 0.93,0.367 V 35.59 h 1.297 v -0.742 h -1.297 v -3.43 c 0,-0.281 0.09,-0.465 0.183,-0.558 0.09,-0.184 0.278,-0.278 0.649,-0.278 l 0.465,0.094 v -0.742 h -0.465 c -0.188,-0.094 -0.371,-0.094 -0.461,-0.094 -0.836,0 -1.301,0.375 -1.301,1.02 v 3.988 h -0.926 v 0.742 z m -9.918,0.09 v -0.648 c -0.273,-0.09 -0.461,-0.09 -0.644,-0.282 -0.094,-0.09 -0.188,-0.367 -0.188,-0.644 v -0.094 h -1.02 c 0,0.555 0.184,1.02 0.465,1.297 0.371,0.281 0.743,0.371 1.387,0.371 m 0,-2.316 v -0.649 c -0.273,-0.094 -0.367,-0.094 -0.555,-0.187 -0.371,-0.09 -0.554,-0.371 -0.554,-0.926 0,-0.277 0.093,-0.559 0.277,-0.742 0.094,-0.184 0.371,-0.278 0.648,-0.278 h 0.184 V 29.84 h -0.461 c -0.555,0 -0.926,0.188 -1.207,0.465 -0.18,0.277 -0.273,0.738 -0.273,1.391 0,0.742 0.183,1.203 0.742,1.39 0.367,0.184 0.738,0.278 1.199,0.278 M 220.578,29.84 v 0.742 c 0.277,0 0.559,0.188 0.738,0.461 0.192,0.282 0.282,0.84 0.282,1.672 h -1.02 v 0.649 c 0.371,0.089 0.649,0.089 1.02,0.089 0,0.465 0,0.93 -0.09,1.114 -0.094,0.281 -0.371,0.465 -0.836,0.465 h -0.094 v 0.648 h 0.188 c 0.648,0 1.113,-0.187 1.39,-0.461 0.278,-0.277 0.367,-0.652 0.367,-1.207 v -2.687 c 0,-0.465 0.094,-0.926 0.188,-1.391 h -1.113 v 0.836 c -0.09,-0.371 -0.282,-0.559 -0.559,-0.742 -0.09,-0.094 -0.273,-0.094 -0.461,-0.188 m 5.746,0 c -0.648,0 -1.109,0.094 -1.484,0.465 -0.278,0.277 -0.461,0.738 -0.461,1.391 h 1.019 c 0,-0.371 0.09,-0.559 0.184,-0.836 0.094,-0.184 0.371,-0.278 0.742,-0.278 0.278,0 0.559,0.094 0.742,0.188 0.184,0.183 0.282,0.367 0.282,0.648 0,0.278 -0.375,0.555 -1.024,0.926 -0.648,0.371 -1.109,0.555 -1.39,0.836 -0.278,0.184 -0.461,0.461 -0.461,0.926 0,0.461 0.183,0.836 0.461,1.113 0.281,0.277 0.836,0.461 1.48,0.461 0.559,0 1.024,-0.09 1.301,-0.371 0.371,-0.277 0.555,-0.649 0.555,-1.203 h -1.02 c 0,0.554 -0.367,0.926 -0.926,0.926 -0.277,0 -0.465,-0.09 -0.648,-0.282 -0.094,-0.09 -0.188,-0.273 -0.188,-0.554 0,-0.184 0.282,-0.555 0.926,-0.832 0.742,-0.371 1.207,-0.649 1.484,-0.836 0.282,-0.184 0.372,-0.461 0.372,-1.016 0,-0.559 -0.184,-1.023 -0.555,-1.297 -0.371,-0.281 -0.832,-0.375 -1.391,-0.375 m 6.117,0.094 v 8.062 h 4.168 v -0.929 h -3.148 v -2.59 h 2.965 v -0.832 l -2.965,-0.004 V 30.86 h 3.242 v -0.926 z m 9.914,0 h -1.203 l -1.297,2.316 -1.296,-2.316 h -1.02 l 1.762,2.965 -1.668,2.687 1.203,0.004 1.113,-2.043 1.113,2.043 h 1.114 l -1.672,-2.691 z m -21.777,5.746 v -0.648 c -0.183,-0.09 -0.371,-0.09 -0.555,-0.282 -0.093,-0.09 -0.187,-0.367 -0.187,-0.644 v -0.094 h -1.02 c 0,0.555 0.188,1.02 0.461,1.297 0.375,0.281 0.746,0.371 1.301,0.371 m 0,-2.316 v -0.649 c -0.183,-0.094 -0.277,-0.094 -0.465,-0.187 -0.371,-0.09 -0.554,-0.371 -0.554,-0.926 0,-0.277 0.093,-0.559 0.281,-0.742 0.09,-0.184 0.367,-0.278 0.644,-0.278 h 0.094 V 29.84 h -0.371 c -0.555,0 -0.926,0.188 -1.203,0.465 -0.188,0.277 -0.277,0.738 -0.277,1.391 0,0.742 0.183,1.203 0.738,1.39 0.371,0.184 0.742,0.278 1.113,0.278 M 200.371,29.84 v 0.742 c 0.281,0 0.559,0.094 0.742,0.278 0.188,0.281 0.282,0.465 0.282,0.742 h 0.921 c 0,-0.559 -0.089,-1.02 -0.461,-1.297 -0.371,-0.371 -0.832,-0.465 -1.484,-0.465 m 0,2.598 v 0.742 h 1.024 c 0,0.738 -0.094,1.203 -0.282,1.48 -0.183,0.188 -0.371,0.372 -0.742,0.372 v 0.648 c 0.836,0 1.301,-0.184 1.578,-0.648 0.278,-0.372 0.461,-1.114 0.461,-2.133 v -0.461 z m 6.953,-2.504 v 3.891 c 0,0.371 -0.094,0.652 -0.277,0.835 -0.094,0.188 -0.371,0.282 -0.742,0.282 -0.461,0 -0.739,-0.192 -0.926,-0.465 -0.188,-0.281 -0.277,-0.742 -0.277,-1.203 v -3.34 h -0.832 v 4.449 c 0,0.367 -0.094,0.738 -0.094,1.203 l 0.926,0.004 v -0.742 h 0.089 c 0.188,0.273 0.375,0.555 0.555,0.648 0.281,0.094 0.559,0.184 0.93,0.184 0.554,0 1.019,-0.184 1.207,-0.461 0.183,-0.277 0.273,-0.742 0.273,-1.394 v -3.891 z m 5.746,3.801 c 0,0.461 -0.09,0.742 -0.277,0.925 -0.094,0.188 -0.277,0.282 -0.559,0.282 -0.371,0 -0.644,-0.094 -0.832,-0.371 -0.183,-0.282 -0.281,-0.746 -0.281,-1.485 0,-0.929 0,-1.574 0.191,-1.945 0.184,-0.371 0.461,-0.559 0.922,-0.559 0.282,0 0.465,0.094 0.653,0.371 0.09,0.188 0.183,0.559 0.183,0.832 h 1.02 c 0,-0.648 -0.278,-1.203 -0.649,-1.48 -0.371,-0.277 -0.742,-0.465 -1.207,-0.465 -0.644,0 -1.203,0.188 -1.574,0.559 -0.371,0.371 -0.555,1.113 -0.555,2.316 0,0.926 0.184,1.668 0.461,2.227 0.188,0.461 0.836,0.738 1.668,0.738 1.207,0 1.762,-0.648 1.762,-1.945 z m 3.801,-3.801 h -0.93 v 5.656 h 0.93 z m -0.93,8.062 h 1.024 v -1.019 h -1.024 z m -15.57,-2.316 v -0.648 h -0.09 c -0.277,0 -0.554,-0.184 -0.742,-0.465 -0.184,-0.184 -0.277,-0.742 -0.277,-1.387 h 1.109 v -0.742 h -1.109 c 0,-0.742 0.093,-1.203 0.277,-1.485 0.188,-0.277 0.465,-0.371 0.832,-0.371 V 29.84 c -0.738,0 -1.199,0.188 -1.57,0.559 -0.371,0.371 -0.559,1.113 -0.559,2.316 0,0.926 0.188,1.668 0.371,2.227 0.282,0.461 0.832,0.738 1.758,0.738 m -17.699,-5.84 v 0.742 h 0.094 c 0.277,0 0.461,0.094 0.648,0.278 0.188,0.281 0.277,0.465 0.277,0.742 h 1.02 c 0,-0.559 -0.188,-1.02 -0.559,-1.297 -0.277,-0.371 -0.832,-0.465 -1.386,-0.465 z m 0,2.598 v 0.742 h 1.109 c 0,0.738 -0.09,1.203 -0.273,1.48 -0.188,0.188 -0.465,0.372 -0.836,0.372 v 0.648 h 0.094 c 0.742,0 1.296,-0.187 1.574,-0.648 0.277,-0.372 0.465,-1.114 0.465,-2.133 v -0.461 z m 10.012,3.336 v 0.742 c 0,0.184 -0.094,0.277 -0.188,0.461 -0.094,0.09 -0.277,0.183 -0.465,0.281 h -0.465 c -0.367,0 -0.644,0 -0.832,-0.191 -0.183,-0.18 -0.371,-0.278 -0.461,-0.457 0,-0.188 -0.093,-0.375 -0.093,-0.653 0,-0.183 -0.09,-0.461 -0.09,-0.925 v -2.223 c 0,-0.836 0.183,-1.484 0.367,-1.766 0.277,-0.273 0.648,-0.367 1.113,-0.367 0.371,0 0.742,0.094 0.926,0.367 0.188,0.282 0.371,0.742 0.371,1.301 h 1.02 c 0,-0.832 -0.188,-1.484 -0.559,-1.945 -0.367,-0.371 -0.926,-0.653 -1.668,-0.653 -0.738,0 -1.387,0.188 -1.851,0.559 -0.461,0.465 -0.743,1.297 -0.743,2.688 v 2.222 c 0,1.113 0.188,1.852 0.649,2.317 0.465,0.464 1.113,0.652 1.945,0.652 0.742,0 1.301,-0.188 1.668,-0.559 0.281,-0.465 0.465,-1.015 0.465,-1.851 z m 3.796,-5.84 h -0.925 v 5.656 h 0.925 z m -1.015,8.062 h 1.019 v -1.019 h -1.019 z M 182.672,35.68 v -0.648 c -0.371,0 -0.649,-0.184 -0.832,-0.465 -0.188,-0.184 -0.281,-0.742 -0.281,-1.387 h 1.113 v -0.742 h -1.113 c 0,-0.742 0.093,-1.203 0.281,-1.485 0.183,-0.277 0.461,-0.371 0.832,-0.371 V 29.84 c -0.649,0 -1.113,0.188 -1.481,0.559 -0.375,0.371 -0.558,1.113 -0.558,2.316 0,0.926 0.094,1.668 0.371,2.227 0.277,0.461 0.836,0.738 1.668,0.738 m -5.84,-5.84 v 0.742 c 0.465,0 0.742,0.188 0.93,0.653 0.09,0.367 0.09,1.015 0.09,1.758 0,0.554 0,1.019 -0.184,1.39 -0.094,0.371 -0.371,0.559 -0.836,0.559 v 0.742 c 0.371,-0.094 0.742,-0.281 1.023,-0.652 v 2.964 h 0.833 v -8.062 h -0.836 v 0.648 c -0.09,-0.277 -0.278,-0.464 -0.555,-0.554 -0.094,-0.094 -0.277,-0.188 -0.465,-0.188 m 0,5.84 v -0.738 c -0.461,0 -0.738,-0.192 -0.926,-0.559 -0.09,-0.277 -0.183,-0.93 -0.183,-1.762 0,-0.648 0.093,-1.113 0.183,-1.484 0.09,-0.367 0.465,-0.555 0.926,-0.555 V 29.84 h -0.277 c -0.559,0 -1.02,0.188 -1.297,0.559 -0.371,0.371 -0.461,1.109 -0.461,2.222 0,1.02 0.09,1.762 0.273,2.317 0.188,0.465 0.746,0.742 1.578,0.742 z m -8.34,-5.84 v 0.742 c 0.461,0 0.742,0.188 0.832,0.653 0.188,0.367 0.188,1.015 0.188,1.758 0,0.554 0,1.019 -0.188,1.39 -0.09,0.371 -0.371,0.559 -0.832,0.559 v 0.742 c 0.367,-0.094 0.742,-0.281 1.02,-0.652 v 2.964 h 0.926 v -8.062 h -0.926 v 0.648 c -0.188,-0.277 -0.371,-0.464 -0.559,-0.554 -0.094,-0.094 -0.273,-0.188 -0.461,-0.188 m 0,5.84 v -0.738 c -0.465,0 -0.742,-0.192 -0.926,-0.559 -0.089,-0.277 -0.187,-0.93 -0.187,-1.762 0,-0.648 0,-1.113 0.187,-1.484 0.09,-0.367 0.372,-0.555 0.926,-0.555 V 29.84 h -0.277 c -0.559,0 -1.024,0.188 -1.297,0.559 -0.371,0.371 -0.559,1.109 -0.559,2.222 0,1.02 0.188,1.762 0.371,2.317 0.188,0.465 0.743,0.742 1.575,0.742 z m -5.933,-5.84 v 0.742 c 0.281,0 0.464,0.188 0.648,0.461 0.281,0.282 0.371,0.84 0.371,1.672 h -1.019 v 0.649 c 0.281,0.089 0.648,0.089 1.019,0.089 0,0.465 -0.09,0.93 -0.183,1.114 -0.09,0.281 -0.372,0.465 -0.833,0.465 v 0.648 h 0.09 c 0.653,0 1.114,-0.187 1.395,-0.461 0.273,-0.277 0.461,-0.652 0.461,-1.207 v -2.687 c 0,-0.465 0,-0.926 0.094,-1.391 h -1.024 v 0.836 c -0.183,-0.371 -0.371,-0.559 -0.555,-0.742 -0.183,-0.094 -0.277,-0.094 -0.464,-0.188 m 0,5.84 v -0.648 c -0.278,-0.09 -0.461,-0.09 -0.649,-0.282 -0.094,-0.09 -0.183,-0.367 -0.183,-0.644 v -0.094 h -1.024 c 0,0.555 0.192,1.02 0.469,1.297 0.367,0.281 0.832,0.371 1.387,0.371 m 0,-2.316 v -0.649 c -0.184,-0.094 -0.368,-0.094 -0.555,-0.187 -0.277,-0.09 -0.465,-0.371 -0.465,-0.926 0,-0.277 0,-0.559 0.188,-0.742 0.183,-0.184 0.371,-0.278 0.648,-0.278 h 0.187 V 29.84 h -0.464 c -0.555,0 -0.926,0.188 -1.114,0.465 -0.277,0.277 -0.371,0.738 -0.371,1.391 0,0.742 0.282,1.203 0.742,1.39 0.372,0.184 0.743,0.278 1.204,0.278 M 138.742,29.84 v 0.742 c 0.281,0 0.461,0.188 0.649,0.461 0.277,0.282 0.371,0.84 0.371,1.672 h -1.02 v 0.649 c 0.281,0.089 0.649,0.089 1.02,0.089 0,0.465 -0.094,0.93 -0.188,1.114 -0.094,0.281 -0.371,0.465 -0.832,0.465 v 0.648 h 0.09 c 0.648,0 1.113,-0.187 1.395,-0.461 0.277,-0.277 0.461,-0.652 0.461,-1.207 v -2.687 c 0,-0.465 0,-0.926 0.093,-1.391 h -1.019 v 0.836 c -0.188,-0.371 -0.371,-0.559 -0.559,-0.742 -0.18,-0.094 -0.273,-0.094 -0.461,-0.188 m 6.949,3.895 c 0,0.461 -0.089,0.742 -0.277,0.925 -0.094,0.188 -0.277,0.282 -0.555,0.282 -0.371,0 -0.652,-0.094 -0.836,-0.371 -0.183,-0.282 -0.277,-0.746 -0.277,-1.485 0,-0.929 0.094,-1.574 0.188,-1.945 0.179,-0.371 0.461,-0.559 0.925,-0.559 0.278,0 0.461,0.094 0.649,0.371 0.094,0.188 0.183,0.559 0.183,0.832 h 1.024 c 0,-0.648 -0.192,-1.203 -0.649,-1.48 -0.375,-0.277 -0.746,-0.465 -1.207,-0.465 -0.652,0 -1.207,0.188 -1.578,0.559 -0.371,0.371 -0.554,1.113 -0.554,2.316 0,0.926 0.183,1.668 0.464,2.227 0.278,0.461 0.832,0.738 1.668,0.738 1.207,0 1.758,-0.648 1.758,-1.945 z m 5.934,1.855 h 0.926 v -4.453 c 0,-0.367 0,-0.738 0.094,-1.203 h -1.02 v 0.648 c -0.371,-0.464 -0.836,-0.742 -1.484,-0.742 -1.02,0 -1.485,0.465 -1.485,1.485 v 4.265 h 0.93 v -3.894 c 0,-0.371 0.094,-0.653 0.187,-0.836 0.18,-0.184 0.461,-0.371 0.739,-0.371 0.277,0 0.554,0.187 0.742,0.371 0.277,0.183 0.371,0.558 0.371,1.023 z m 3.797,-5.656 h -0.926 v 8.062 h 0.926 z m 1.949,5.656 v 1.11 l 0.926,0.367 V 35.59 h 1.207 v -0.742 h -1.207 v -3.43 c 0,-0.281 0,-0.465 0.094,-0.558 0.089,-0.184 0.371,-0.278 0.742,-0.278 l 0.371,0.094 v -0.742 h -0.371 c -0.281,-0.094 -0.371,-0.094 -0.465,-0.094 -0.836,0 -1.297,0.375 -1.297,1.02 v 3.988 h -0.93 v 0.742 z m -25.766,-5.656 v 8.062 h 3.989 v -0.929 h -2.969 v -2.59 h 2.871 v -0.832 l -2.871,-0.004 v -3.707 z m 7.137,5.746 v -0.648 c -0.277,-0.09 -0.465,-0.09 -0.648,-0.282 -0.094,-0.09 -0.188,-0.367 -0.188,-0.644 v -0.094 h -1.015 c 0,0.555 0.179,1.02 0.461,1.297 0.371,0.281 0.836,0.371 1.39,0.371 m 0,-2.316 v -0.649 c -0.183,-0.094 -0.371,-0.094 -0.554,-0.187 -0.282,-0.09 -0.465,-0.371 -0.465,-0.926 0,-0.277 0,-0.559 0.183,-0.742 0.188,-0.184 0.371,-0.278 0.653,-0.278 h 0.183 V 29.84 h -0.465 c -0.554,0 -0.925,0.188 -1.113,0.465 -0.273,0.277 -0.367,0.738 -0.367,1.391 0,0.742 0.273,1.203 0.738,1.39 0.371,0.184 0.742,0.278 1.207,0.278"
         style="fill:#0b0d0b;fill-opacity:1;fill-rule:evenodd;stroke:none"
         id="path168" />
      <path
         d="M 131.512,48.563 H 355.797 V 46.336 H 131.512 Z"
         style="fill:#0b0d0b;fill-opacity:1;fill-rule:evenodd;stroke:none"
         id="path170" />
      <path
         d="m 313.816,56.258 v 2.223 c 1.668,0 2.778,0.742 3.426,2.312 0.649,1.578 0.926,3.895 0.926,7.047 0,3.149 -0.277,5.469 -0.926,7.043 -0.648,1.574 -1.758,2.317 -3.426,2.317 v 2.132 c 2.407,0 4.262,-1.019 5.469,-3.058 1.203,-2.039 1.758,-4.821 1.758,-8.434 0,-3.613 -0.555,-6.394 -1.758,-8.437 -1.207,-2.035 -3.062,-3.145 -5.469,-3.145 m 23.633,0.926 c 0,-0.281 -0.187,-0.465 -0.465,-0.465 h -1.761 c -0.184,0 -0.368,0.184 -0.461,0.371 l -7.508,15.942 c -0.371,0.925 -0.742,1.851 -0.836,2.871 h -0.09 c 0.09,-0.649 0.184,-1.114 0.277,-1.575 V 57.184 c 0,-0.281 -0.093,-0.465 -0.371,-0.465 h -1.668 c -0.277,0 -0.371,0.184 -0.371,0.465 v 21.312 c 0,0.282 0.094,0.372 0.371,0.372 h 2.223 c 0.184,0 0.371,-0.09 0.465,-0.278 l 7.133,-15.015 c 0.187,-0.372 0.281,-0.739 0.371,-1.204 0.187,-0.464 0.281,-0.925 0.371,-1.296 h 0.094 c 0,0.187 -0.094,0.558 -0.184,0.925 -0.094,0.465 -0.094,0.836 -0.094,1.114 v 15.382 c 0,0.282 0.094,0.372 0.371,0.372 h 1.668 c 0.278,0 0.465,-0.09 0.465,-0.372 z M 313.816,79.332 V 77.2 c -1.668,0 -2.875,-0.832 -3.523,-2.411 -0.652,-1.574 -0.926,-3.89 -0.926,-6.949 0,-3.152 0.278,-5.562 0.926,-7.047 0.555,-1.57 1.758,-2.312 3.523,-2.312 v -2.223 c -2.504,0 -4.355,1.016 -5.562,3.055 -1.207,2.039 -1.762,4.914 -1.762,8.527 0,3.613 0.555,6.395 1.762,8.434 1.207,2.043 3.058,3.058 5.562,3.058 M 272.574,63.395 v 2.219 h 2.684 l -1.946,7.136 c -0.183,0.743 -0.277,1.301 -0.464,1.856 -0.09,0.554 -0.18,0.926 -0.274,1.207 v 3.055 h 1.016 c 0.281,0 0.371,-0.09 0.465,-0.278 l 6.488,-21.133 0.187,-0.554 c 0,-0.09 -0.097,-0.184 -0.468,-0.184 h -1.942 c -0.371,0 -0.558,0.184 -0.558,0.371 l -1.852,6.305 z m 21.871,-4.172 c 0.184,-0.191 0.278,-0.281 0.278,-0.465 0,-0.277 -0.555,-0.832 -1.672,-1.484 -1.11,-0.649 -2.313,-1.016 -3.52,-1.016 -2.593,0 -4.539,1.11 -5.742,3.238 -1.117,2.043 -1.762,4.914 -1.762,8.532 0,3.425 0.555,6.207 1.668,8.246 1.11,2.039 2.965,3.058 5.559,3.058 1.297,0 2.5,-0.277 3.523,-0.929 1.11,-0.645 1.668,-1.203 1.668,-1.575 0,-0.093 -0.093,-0.277 -0.187,-0.371 l -0.649,-0.925 c -0.187,-0.184 -0.277,-0.278 -0.367,-0.278 -0.558,0.559 -1.207,0.926 -1.949,1.391 -0.652,0.371 -1.297,0.555 -1.949,0.555 -1.668,0 -2.778,-0.743 -3.426,-2.133 -0.652,-1.481 -0.926,-3.707 -0.926,-6.672 0,-3.152 0.371,-5.652 1.113,-7.32 0.739,-1.762 1.852,-2.594 3.426,-2.594 0.836,0 1.668,0.277 2.598,0.922 0.461,0.281 0.922,0.652 1.387,0.929 0,0 0.093,0 0.187,-0.093 l 0.094,-0.09 z m 10.934,-2.039 c 0,-0.281 -0.09,-0.465 -0.371,-0.465 h -8.524 c -0.277,0 -0.464,0.184 -0.464,0.465 v 1.297 c 0,0.277 0.187,0.371 0.464,0.371 h 2.871 v 17.976 h -2.871 c -0.277,0 -0.464,0.098 -0.464,0.372 v 1.296 c 0,0.282 0.187,0.372 0.464,0.372 h 8.524 c 0.281,0 0.371,-0.09 0.371,-0.372 V 77.2 c 0,-0.274 -0.09,-0.372 -0.371,-0.372 h -2.965 V 58.852 h 2.965 c 0.281,0 0.371,-0.094 0.371,-0.371 z m -32.805,21.684 v -3.055 c -0.094,-0.465 -0.094,-0.746 -0.187,-0.93 0,-0.094 -0.184,-0.832 -0.555,-2.133 l -1.949,-7.136 h 2.691 v -2.219 h -3.34 L 267.66,57.09 c -0.094,-0.187 -0.281,-0.371 -0.652,-0.371 h -1.942 c -0.187,0 -0.277,0.094 -0.371,0.094 v 0.644 l 6.485,21.133 c 0.097,0.188 0.281,0.278 0.558,0.278 z m -7.879,-0.645 0.184,0.461 c 0,0.094 -0.09,0.184 -0.184,0.184 z m 0,0.645 v -0.645 l -0.465,-1.207 c -0.093,-0.281 -0.187,-0.371 -0.464,-0.371 h -4.543 V 57.184 c 0,-0.281 -0.18,-0.465 -0.461,-0.465 h -1.852 c -0.281,0 -0.371,0.184 -0.371,0.465 v 19.461 h -4.82 c -0.278,0 -0.371,0.09 -0.371,0.371 v 1.48 c 0,0.282 0.093,0.372 0.464,0.372 z m 0,-21.5 -0.093,-0.465 c 0,0 0,-0.09 0.093,-0.09 z m -37.816,8.804 v 2.317 c 0.836,0.093 1.578,0.371 2.133,0.832 0.742,0.558 1.203,1.761 1.203,3.617 0,1.574 -0.371,2.594 -1.11,3.055 -0.648,0.375 -1.39,0.558 -2.226,0.652 v 2.223 c 1.578,0 2.965,-0.372 4.082,-1.02 1.293,-0.648 1.851,-2.316 1.851,-4.82 0,-2.5 -0.648,-4.258 -1.945,-5.375 -1.113,-0.832 -2.41,-1.387 -3.988,-1.481 m 22.336,-3.429 c 0,-2.04 -0.649,-3.614 -1.758,-4.727 -1.207,-1.113 -2.965,-1.762 -5.379,-1.762 -2.41,0 -4.078,0.559 -5.094,1.672 -1.113,1.106 -1.668,2.684 -1.668,4.817 v 15.753 c 0,0.282 0.184,0.372 0.461,0.372 h 1.852 c 0.281,0 0.371,-0.09 0.371,-0.372 V 62.743 c 0,-1.391 0.281,-2.411 0.926,-3.153 0.652,-0.738 1.672,-1.109 3.156,-1.109 2.961,0 4.449,1.387 4.449,4.262 v 15.753 c 0,0.282 0.09,0.372 0.371,0.372 h 1.852 c 0.277,0 0.461,-0.09 0.461,-0.372 z m -22.336,16.125 v -2.223 h -3.336 v -8.25 h 2.133 c 0.367,0 0.832,0 1.203,0.094 v -2.317 c -0.371,-0.094 -0.649,-0.094 -1.02,-0.094 h -2.316 v -8.894 c 0,-0.281 -0.184,-0.465 -0.371,-0.465 h -1.945 c -0.184,0 -0.368,0.184 -0.368,0.465 v 21.312 c 0,0.282 0.184,0.372 0.368,0.372 z m -37.164,-22.61 v 2.223 c 1.762,0 2.871,0.742 3.523,2.312 0.645,1.578 0.926,3.895 0.926,7.047 0,3.149 -0.281,5.469 -0.926,7.043 -0.652,1.574 -1.761,2.317 -3.523,2.317 v 2.132 c 2.5,0 4.359,-1.019 5.562,-3.058 1.207,-2.039 1.762,-4.821 1.762,-8.434 0,-3.613 -0.555,-6.394 -1.762,-8.437 -1.203,-2.035 -3.062,-3.145 -5.562,-3.145 m 26.875,0.926 c 0,-0.281 -0.09,-0.465 -0.367,-0.465 h -1.852 c -0.281,0 -0.371,0.184 -0.371,0.465 l -0.559,16.59 v 2.039 c 0,-0.746 -0.187,-1.485 -0.371,-2.223 l -3.984,-11.312 c -0.09,-0.278 -0.281,-0.371 -0.461,-0.371 h -0.93 c -0.277,0 -0.461,0.093 -0.554,0.371 l -3.711,11.308 c -0.274,0.742 -0.368,1.481 -0.368,2.227 h -0.093 v -1.949 l -0.465,-16.68 c 0,-0.281 -0.09,-0.465 -0.371,-0.465 h -1.852 c -0.277,0 -0.371,0.184 -0.371,0.465 l 1.203,21.312 c 0,0.282 0.098,0.372 0.375,0.372 h 2.133 c 0.09,0 0.277,-0.09 0.277,-0.372 l 3.891,-11.023 c 0,-0.098 0.09,-0.281 0.09,-0.559 0.094,-0.277 0.187,-0.746 0.281,-1.484 0.09,0.277 0.278,0.648 0.371,1.109 0.094,0.559 0.184,0.836 0.184,0.934 l 3.801,11.023 c 0.093,0.282 0.187,0.372 0.367,0.372 h 2.133 c 0.187,0 0.371,-0.09 0.371,-0.372 z m -78.867,2.039 c 1.203,0.367 2.132,1.016 2.687,2.039 0.742,1.574 1.113,3.891 1.113,6.949 0,3.336 -0.464,5.563 -1.394,6.672 -0.551,0.742 -1.387,1.301 -2.406,1.574 v 2.321 c 1.855,-0.282 3.336,-0.93 4.445,-1.95 1.578,-1.386 2.32,-4.351 2.32,-8.8 0,-3.895 -0.742,-6.766 -2.133,-8.621 -1.019,-1.297 -2.597,-2.133 -4.636,-2.504 z m 51.992,20.109 V 77.2 c -1.668,0 -2.777,-0.832 -3.43,-2.411 -0.648,-1.574 -0.926,-3.89 -0.926,-6.949 0,-3.152 0.278,-5.562 0.926,-7.047 0.555,-1.57 1.762,-2.312 3.43,-2.312 v -2.223 c -2.504,0 -4.262,1.016 -5.465,3.055 -1.207,2.039 -1.762,4.914 -1.762,8.527 0,3.613 0.555,6.395 1.762,8.434 1.203,2.043 2.961,3.058 5.465,3.058 M 158.762,57.184 c 0,-0.281 -0.188,-0.465 -0.465,-0.465 h -10.008 c -0.187,0 -0.371,0.184 -0.371,0.465 v 21.312 c 0,0.282 0.184,0.372 0.371,0.372 h 10.379 c 0.094,-0.09 0.094,-0.09 0.184,-0.184 l -0.184,-0.371 -0.371,-1.387 c -0.09,-0.191 -0.277,-0.281 -0.555,-0.281 h -7.137 v -7.137 h 6.305 c 0.278,0 0.461,-0.183 0.461,-0.465 v -1.39 c 0,-0.278 -0.187,-0.461 -0.461,-0.461 h -6.305 v -8.16 h 7.782 c 0.187,0 0.375,-0.09 0.375,-0.368 z m 22.429,2.039 c 0.09,-0.191 0.184,-0.281 0.184,-0.465 0,-0.277 -0.555,-0.832 -1.668,-1.484 -1.113,-0.649 -2.227,-1.016 -3.43,-1.016 -2.597,0 -4.539,1.11 -5.652,3.238 -1.207,2.043 -1.762,4.914 -1.762,8.532 0,3.425 0.555,6.207 1.575,8.246 1.113,2.039 2.968,3.058 5.652,3.058 1.203,0 2.32,-0.277 3.43,-0.929 1.023,-0.645 1.574,-1.203 1.574,-1.575 0,-0.093 0,-0.277 -0.184,-0.371 l -0.652,-0.925 c -0.09,-0.184 -0.274,-0.278 -0.367,-0.278 -0.555,0.559 -1.203,0.926 -1.762,1.391 -0.742,0.371 -1.391,0.555 -2.039,0.555 -1.668,0 -2.778,-0.743 -3.426,-2.133 -0.652,-1.481 -0.93,-3.707 -0.93,-6.672 0,-3.152 0.371,-5.652 1.114,-7.32 0.738,-1.762 1.855,-2.594 3.523,-2.594 0.742,0 1.574,0.277 2.5,0.922 0.371,0.281 0.836,0.652 1.297,0.929 0.09,0 0.09,0 0.187,-0.093 l 0.094,-0.09 z m -45.23,-0.191 c 0.652,0 1.297,0.097 1.762,0.191 v -2.32 c -0.649,-0.09 -1.485,-0.184 -2.317,-0.184 h -3.707 c -0.281,0 -0.371,0.184 -0.371,0.465 v 21.312 c 0,0.282 0.09,0.372 0.371,0.372 h 4.078 c 0.645,0 1.391,0 1.946,-0.09 v -2.317 c -0.555,0.09 -1.207,0.184 -2.043,0.184 h -1.758 V 59.032 Z"
         style="fill:#0b0d0b;fill-opacity:1;fill-rule:evenodd;stroke:none"
         id="path172" />
    </g>
  </g>
</svg>
